Coordinates
version=1
nRows=24
nColumns=24
inDegrees=yes

Units are S.I. units (second, meters, Newtons, ...)
Angles are in degrees.

endheader
time	pelvis_tilt	pelvis_list	pelvis_rotation	pelvis_tx	pelvis_ty	pelvis_tz	hip_flexion_r	hip_adduction_r	hip_rotation_r	knee_angle_r	ankle_angle_r	subtalar_angle_r	mtp_angle_r	hip_flexion_l	hip_adduction_l	hip_rotation_l	knee_angle_l	ankle_angle_l	subtalar_angle_l	mtp_angle_l	lumbar_extension	lumbar_bending	lumbar_rotation
      6.24000000	     11.72852241	      2.28659772	     -3.21466225	      2.39064421	      0.75858889	     -0.23844076	     17.40037703	     -0.41938855	      0.68828567	    -65.81054440	      0.69989096	    -22.20790094	      0.00000000	    -11.41998806	      6.95427974	      4.42820257	     -4.66701546	      9.70977068	    -18.32347724	      0.00000000	    -27.51536159	     -2.06665711	     -6.52546444
      6.25000000	     11.57525400	      2.05495017	     -2.55279190	      2.40044610	      0.75876200	     -0.23840772	     18.13348835	     -0.26637425	      0.47438914	    -63.20491540	      1.64064009	    -22.46827149	      0.00000000	    -12.26247029	      6.55413004	      4.97630622	     -4.38564134	     10.32625986	    -18.10786205	      0.00000000	    -27.45843330	     -1.67933653	     -7.05586517
      6.26000000	     11.50713103	      1.89881212	     -1.90718204	      2.41026018	      0.75882050	     -0.23829108	     18.58599932	     -0.23522664	      0.29102477	    -60.20065805	      2.34990415	    -22.94332260	      0.00000000	    -13.18648342	      6.21625147	      5.50115848	     -4.10783012	     10.89697073	    -17.86574780	      0.00000000	    -27.51128567	     -1.39443066	     -7.59832521
      6.27000000	     11.46566428	      1.79758451	     -1.27455964	      2.42014071	      0.75870845	     -0.23812024	     18.80285392	     -0.28210438	      0.15949922	    -56.78351458	      2.56193945	    -23.94869551	      0.00000000	    -14.13863348	      5.91880950	      5.98470946	     -3.82604823	     11.47203050	    -17.63236746	      0.00000000	    -27.58392715	     -1.16429840	     -8.11701642
      6.28000000	     11.37374431	      1.77868492	     -0.64026844	      2.43007680	      0.75832855	     -0.23788699	     18.88079197	     -0.44025566	      0.06292366	    -52.98433860	      2.40071185	    -25.27146488	      0.00000000	    -15.01340450	      5.68594296	      6.50454089	     -3.58817138	     12.06885602	    -17.42244064	      0.00000000	    -27.59615986	     -1.03477286	     -8.65280113
      6.29000000	     11.25005259	      1.84368560	     -0.02419504	      2.44011236	      0.75769391	     -0.23760392	     18.79337597	     -0.71683909	      0.00228545	    -48.80750724	      2.01543743	    -26.69396549	      0.00000000	    -15.84961797	      5.52727299	      7.01732014	     -3.36896690	     12.65836078	    -17.23719471	      0.00000000	    -27.56000997	     -1.00126298	     -9.16381320
      6.30000000	     11.10607989	      1.99088487	      0.56235312	      2.45026044	      0.75681664	     -0.23725876	     18.52377807	     -1.08759005	      0.02206025	    -44.26206134	      1.55776296	    -27.89244136	      0.00000000	    -16.66366434	      5.44427439	      7.52820899	     -3.17042099	     13.25724956	    -17.07973290	      0.00000000	    -27.48853329	     -1.06643034	     -9.70541175
      6.31000000	     10.87564734	      2.23774678	      1.12668029	      2.46051812	      0.75562037	     -0.23686352	     18.14487118	     -1.55654253	      0.18079681	    -39.36720828	      0.94000063	    -28.94568420	      0.00000000	    -17.35122195	      5.46065946	      8.06367685	     -3.06085145	     13.82758388	    -16.92134019	      0.00000000	    -27.30881071	     -1.25457553	    -10.21315559
      6.32000000	     10.68974003	      2.56939373	      1.65177636	      2.47093985	      0.75422182	     -0.23642135	     17.52095787	     -2.12256655	      0.44429828	    -34.16441195	      0.59624338	    -29.26643753	      0.00000000	    -18.10495026	      5.55984792	      8.58567498	     -2.95602248	     14.41842185	    -16.77972633	      0.00000000	    -27.16558924	     -1.53871015	    -10.71731145
      6.33000000	     10.47109798	      3.02248412	      2.17101397	      2.48151040	      0.75253018	     -0.23596625	     16.78031617	     -2.84447728	      0.77459527	    -28.75952187	      0.52920287	    -28.79060078	      0.00000000	    -18.80822606	      5.77691056	      9.16487901	     -2.92561124	     15.00744158	    -16.64026473	      0.00000000	    -26.97877431	     -1.95557704	    -11.24572430
      6.34000000	     10.29546028	      3.54592943	      2.64214387	      2.49228188	      0.75062707	     -0.23543540	     15.83315763	     -3.61257954	      1.41145445	    -23.18816239	      0.49281340	    -27.91521716	      0.00000000	    -19.58286307	      6.06119747	      9.69030963	     -2.89909914	     15.56790255	    -16.51242823	      0.00000000	    -26.82589863	     -2.45394373	    -11.76091398
      6.35000000	     10.13951371	      4.13692502	      3.08870284	      2.50324655	      0.74848510	     -0.23485193	     14.78227103	     -4.47746914	      2.24375715	    -17.63158898	      0.64962032	    -26.47364676	      0.00000000	    -20.38949900	      6.40362581	     10.18309357	     -2.90424050	     16.10889637	    -16.39259894	      0.00000000	    -26.68915644	     -3.02596231	    -12.30534274
      6.36000000	      9.95437203	      4.84425515	      3.53799688	      2.51436238	      0.74606342	     -0.23430770	     13.85858281	     -5.55751292	      2.80886543	    -12.45953511	      1.68108531	    -23.69234090	      0.00000000	    -21.15604200	      6.86064660	     10.78504776	     -2.99609037	     16.68277094	    -16.26087074	      0.00000000	    -26.52907749	     -3.70055181	    -12.84013270
      6.37000000	      9.79783548	      5.55065065	      3.98322797	      2.52561067	      0.74350667	     -0.23372053	     12.99939223	     -6.65491701	      3.30160345	     -7.78119973	      2.94427208	    -20.50588755	      0.00000000	    -21.95531581	      7.29680778	     11.41578433	     -3.12994210	     17.22348283	    -16.18988890	      0.00000000	    -26.41537834	     -4.35731941	    -13.38014544
      6.38000000	      9.67198599	      6.19876816	      4.43101047	      2.53692027	      0.74092850	     -0.23308857	     12.29292275	     -7.68407583	      3.47038187	     -3.82148737	      4.59930982	    -16.76968998	      0.00000000	    -22.75538006	      7.65380469	     12.04753543	     -3.34374672	     17.74483893	    -16.15819574	      0.00000000	    -26.36707106	     -4.92589014	    -13.87527891
      6.39000000	      9.57106960	      6.70320600	      4.84849193	      2.54828882	      0.73842544	     -0.23232938	     11.74714768	     -8.49376556	      3.41381098	     -0.63580471	      6.37139288	    -13.01275644	      0.00000000	    -23.54218158	      7.85549521	     12.64720999	     -3.62984371	     18.22614199	    -16.12219187	      0.00000000	    -26.35355475	     -5.34259240	    -14.29290370
      6.40000000	      9.50919800	      7.05279608	      5.25128388	      2.55964858	      0.73608958	     -0.23144449	     11.29119648	     -9.05473734	      3.40048214	      1.80392895	      7.95367686	     -9.91926165	      0.00000000	    -24.27438913	      7.89279458	     13.15706443	     -4.06217370	     18.68313687	    -16.09283692	      0.00000000	    -26.41329481	     -5.57527544	    -14.61355994
      6.41000000	      9.54857337	      7.24521272	      5.63517817	      2.57104858	      0.73403366	     -0.23039698	     10.76280461	     -9.37249631	      3.85039615	      3.60211999	      8.90255513	     -8.42140621	      0.00000000	    -25.05919155	      7.74279741	     13.54935736	     -4.55690423	     19.04802317	    -16.00384959	      0.00000000	    -26.59172074	     -5.63409451	    -14.90005326
      6.42000000	      9.56335525	      7.28525051	      5.97827015	      2.58241708	      0.73219073	     -0.22919894	     10.47831972	     -9.42074967	      3.95613926	      4.49048811	      9.88128981	     -7.26822637	      0.00000000	    -25.65410233	      7.47337155	     13.85884962	     -5.30972326	     19.35824317	    -15.91029506	      0.00000000	    -26.75928209	     -5.53021589	    -15.03071044
      6.43000000	      9.55835810	      7.20881857	      6.27073984	      2.59385755	      0.73057543	     -0.22778743	     10.30392041	     -9.26170667	      4.21461050	      4.69192369	     10.36061790	     -7.27821264	      0.00000000	    -26.15724189	      7.10353674	     14.14239627	     -6.15886763	     19.54912267	    -15.86482665	      0.00000000	    -26.89511695	     -5.33695855	    -15.10789991
      6.44000000	      9.69857794	      6.97606995	      6.53203970	      2.60540230	      0.72941403	     -0.22621835	     10.03229501	     -8.83576652	      4.10943995	      4.32844863	     10.38346274	     -7.88896552	      0.00000000	    -26.68629987	      6.57490119	     14.23527050	     -7.19940785	     19.59766730	    -15.76983791	      0.00000000	    -27.17014177	     -4.95475134	    -15.12302106
      6.45000000	      9.81900827	      6.68648205	      6.74425303	      2.61704456	      0.72851285	     -0.22444488	      9.72196752	     -8.33235073	      4.69242337	      3.67801630	      9.38009433	    -10.34798704	      0.00000000	    -27.00717784	      6.02299102	     14.00103408	     -8.54725167	     19.64550376	    -15.33109046	      0.00000000	    -27.41210169	     -4.54673651	    -15.15021319
      6.46000000	      9.99938580	      6.29245706	      6.93776858	      2.62875859	      0.72805346	     -0.22259804	      9.40191692	     -7.66592920	      4.79610032	      2.67850548	      7.92222715	    -12.86208834	      0.00000000	    -27.26154043	      5.40069538	     13.86437471	    -10.10222683	     19.34444310	    -15.26729624	      0.00000000	    -27.70820371	     -4.00872320	    -15.16169785
      6.47000000	     10.25509500	      5.79716736	      7.11990196	      2.64051949	      0.72807762	     -0.22072134	      9.00879649	     -6.87527005	      4.66583902	      1.50311984	      6.06810499	    -15.48837837	      0.00000000	    -27.38912129	      4.71615818	     13.61399453	    -11.98524877	     18.80511019	    -15.24772444	      0.00000000	    -28.07809044	     -3.33738363	    -15.16961693
